HIERARCHY
ROOT newVegas:Hips
{
	OFFSET 0.000000 96.479958 0.000000
	CHANNELS 6 Xposition Yposition Zposition Xrotation Yrotation Zrotation
	JOINT newVegas:Pelvis
	{
		OFFSET 0.000000 0.000000 0.000000
		CHANNELS 3 Xrotation Yrotation Zrotation
		JOINT newVegas:LeftUpLeg
		{
			OFFSET 18.735201 -5.666702 -4.541200
			CHANNELS 3 Xrotation Yrotation Zrotation
			JOINT newVegas:LeftLeg
			{
				OFFSET -0.021200 -31.938179 0.493100
				CHANNELS 3 Xrotation Yrotation Zrotation
				JOINT newVegas:LeftFoot
				{
					OFFSET 0.021200 -31.938179 -4.336299
					CHANNELS 3 Xrotation Yrotation Zrotation
					JOINT newVegas:LeftToeBase
					{
						OFFSET 0.943001 -26.722000 15.023500
						CHANNELS 3 Xrotation Yrotation Zrotation
						End Site
						{
							OFFSET 0.000000 30.670183 0.000000
						}
					}
				}
				JOINT newVegas:Left_PantLeg
				{
					OFFSET 0.663870 -9.044666 -1.108900
					CHANNELS 3 Xrotation Yrotation Zrotation
					End Site
					{
						OFFSET 1.415995 20.635357 0.000000
					}
				}
			}
		}
		JOINT newVegas:RightUpLeg
		{
			OFFSET -18.735201 -5.666702 -4.541200
			CHANNELS 3 Xrotation Yrotation Zrotation
			JOINT newVegas:RightLeg
			{
				OFFSET 0.018946 -31.938133 0.493100
				CHANNELS 3 Xrotation Yrotation Zrotation
				JOINT newVegas:RightFoot
				{
					OFFSET -0.018946 -31.938126 -4.336299
					CHANNELS 3 Xrotation Yrotation Zrotation
					JOINT newVegas:RightToeBase
					{
						OFFSET -0.943001 -26.722004 15.023500
						CHANNELS 3 Xrotation Yrotation Zrotation
						End Site
						{
							OFFSET 0.000000 30.670187 0.000000
						}
					}
				}
				JOINT newVegas:Right_PantLeg
				{
					OFFSET -0.661674 -9.044716 -1.108900
					CHANNELS 3 Xrotation Yrotation Zrotation
					End Site
					{
						OFFSET -1.415958 20.635269 0.000000
					}
				}
			}
		}
	}
	JOINT newVegas:Spine
	{
		OFFSET 0.000000 10.199997 -0.299500
		CHANNELS 3 Xrotation Yrotation Zrotation
		JOINT newVegas:Spine1
		{
			OFFSET 0.000000 11.900002 -1.516600
			CHANNELS 3 Xrotation Yrotation Zrotation
			JOINT newVegas:Spine2
			{
				OFFSET 0.000000 13.600006 -2.842500
				CHANNELS 3 Xrotation Yrotation Zrotation
				JOINT newVegas:Neck
				{
					OFFSET 0.000000 9.624100 -2.890100
					CHANNELS 3 Xrotation Yrotation Zrotation
					JOINT newVegas:Head
					{
						OFFSET 0.000000 14.068802 -1.351900
						CHANNELS 3 Xrotation Yrotation Zrotation
						JOINT newVegas:Hair_Back
						{
							OFFSET 0.000000 3.231903 -17.524799
							CHANNELS 3 Xrotation Yrotation Zrotation
							End Site
							{
								OFFSET 0.000000 19.849884 0.000000
							}
						}
						JOINT newVegas:Hair_Front
						{
							OFFSET 0.000000 31.260406 4.573800
							CHANNELS 3 Xrotation Yrotation Zrotation
							JOINT newVegas:Hair_Front1
							{
								OFFSET 0.000000 2.284103 11.993300
								CHANNELS 3 Xrotation Yrotation Zrotation
								JOINT newVegas:Hair_Front2
								{
									OFFSET 0.000000 2.284103 11.993300
									CHANNELS 3 Xrotation Yrotation Zrotation
									End Site
									{
										OFFSET 0.000000 12.208862 0.000000
									}
								}
							}
						}
						JOINT newVegas:Jowel
						{
							OFFSET 0.000000 -7.458206 6.864100
							CHANNELS 3 Xrotation Yrotation Zrotation
							End Site
							{
								OFFSET 0.000000 19.849884 0.000000
							}
						}
					}
				}
				JOINT newVegas:LeftShoulder
				{
					OFFSET 15.263000 10.923401 -0.547700
					CHANNELS 3 Xrotation Yrotation Zrotation
					JOINT newVegas:LeftArm
					{
						OFFSET 25.438599 -2.830597 -13.032500
						CHANNELS 3 Xrotation Yrotation Zrotation
						JOINT newVegas:LeftForeArm
						{
							OFFSET 29.960503 0.000000 0.000000
							CHANNELS 3 Xrotation Yrotation Zrotation
							JOINT newVegas:LeftHand
							{
								OFFSET 27.849251 0.000000 0.000000
								CHANNELS 3 Xrotation Yrotation Zrotation
								JOINT newVegas:LeftHandThumb1
								{
									OFFSET 4.487587 -3.305161 6.305391
									CHANNELS 3 Xrotation Yrotation Zrotation
									JOINT newVegas:LeftHandThumb2
									{
										OFFSET 5.480453 -3.164139 3.164143
										CHANNELS 3 Xrotation Yrotation Zrotation
										JOINT newVegas:LeftHandThumb3
										{
											OFFSET 5.159721 -2.978973 2.978967
											CHANNELS 3 Xrotation Yrotation Zrotation
											End Site
											{
												OFFSET 2.494507 5.926697 1.738678
											}
										}
									}
								}
								JOINT newVegas:LeftHandIndex1
								{
									OFFSET 18.578728 -0.527832 5.208049
									CHANNELS 3 Xrotation Yrotation Zrotation
									JOINT newVegas:LeftHandIndex2
									{
										OFFSET 3.192009 0.000000 0.000000
										CHANNELS 3 Xrotation Yrotation Zrotation
										JOINT newVegas:LeftHandIndex3
										{
											OFFSET 3.835129 0.000000 0.000000
											CHANNELS 3 Xrotation Yrotation Zrotation
											End Site
											{
												OFFSET -0.034599 3.816971 0.371180
											}
										}
									}
								}
								JOINT newVegas:LeftHandMiddle1
								{
									OFFSET 18.476105 0.000000 0.000000
									CHANNELS 3 Xrotation Yrotation Zrotation
									JOINT newVegas:LeftHandMiddle2
									{
										OFFSET 3.324875 0.000000 0.000000
										CHANNELS 3 Xrotation Yrotation Zrotation
										JOINT newVegas:LeftHandMiddle3
										{
											OFFSET 4.596550 0.000000 0.000000
											CHANNELS 3 Xrotation Yrotation Zrotation
											End Site
											{
												OFFSET 0.057701 4.578827 0.399218
											}
										}
									}
								}
								JOINT newVegas:LeftHandRing1
								{
									OFFSET 17.732719 0.121887 -4.201567
									CHANNELS 3 Xrotation Yrotation Zrotation
									JOINT newVegas:LeftHandRing2
									{
										OFFSET 2.733170 0.000000 0.000000
										CHANNELS 3 Xrotation Yrotation Zrotation
										JOINT newVegas:LeftHandRing3
										{
											OFFSET 3.178268 0.000000 0.000000
											CHANNELS 3 Xrotation Yrotation Zrotation
											End Site
											{
												OFFSET 0.119102 3.170624 0.185394
											}
										}
									}
								}
								JOINT newVegas:LeftHandPinky1
								{
									OFFSET 15.989624 -0.606689 -7.535461
									CHANNELS 3 Xrotation Yrotation Zrotation
									JOINT newVegas:LeftHandPinky2
									{
										OFFSET 2.538986 0.000000 0.000000
										CHANNELS 3 Xrotation Yrotation Zrotation
										JOINT newVegas:LeftHandPinky3
										{
											OFFSET 2.593102 0.000000 0.000000
											CHANNELS 3 Xrotation Yrotation Zrotation
											End Site
											{
												OFFSET -0.150902 2.584198 0.152708
											}
										}
									}
								}
							}
							JOINT newVegas:Left_Sleeve
							{
								OFFSET 0.267448 -0.649796 0.577675
								CHANNELS 3 Xrotation Yrotation Zrotation
								End Site
								{
									OFFSET 0.000000 15.991241 0.000000
								}
							}
							JOINT newVegas:Left_CapeC
							{
								OFFSET 15.715958 -8.608795 -6.935905
								CHANNELS 3 Xrotation Yrotation Zrotation
								JOINT newVegas:Left_CapeC1
								{
									OFFSET 0.000000 -8.688499 0.000000
									CHANNELS 3 Xrotation Yrotation Zrotation
									End Site
									{
										OFFSET 0.000000 8.688499 0.000000
									}
								}
							}
						}
						JOINT newVegas:Left_CapeB
						{
							OFFSET 26.118385 -8.608795 -7.079235
							CHANNELS 3 Xrotation Yrotation Zrotation
							JOINT newVegas:Left_CapeB1
							{
								OFFSET 0.000000 -8.688499 0.000000
								CHANNELS 3 Xrotation Yrotation Zrotation
								End Site
								{
									OFFSET 0.000000 8.688499 0.000000
								}
							}
						}
						JOINT newVegas:Left_CapeA
						{
							OFFSET 5.115639 -8.608795 -10.395809
							CHANNELS 3 Xrotation Yrotation Zrotation
							JOINT newVegas:Left_CapeA1
							{
								OFFSET 0.000000 -8.688499 0.000000
								CHANNELS 3 Xrotation Yrotation Zrotation
								End Site
								{
									OFFSET 0.000000 8.688499 0.000000
								}
							}
						}
					}
				}
				JOINT newVegas:RightShoulder
				{
					OFFSET -15.263000 10.923401 -0.547700
					CHANNELS 3 Xrotation Yrotation Zrotation
					JOINT newVegas:RightArm
					{
						OFFSET -25.438599 -2.830597 -13.032500
						CHANNELS 3 Xrotation Yrotation Zrotation
						JOINT newVegas:RightForeArm
						{
							OFFSET -29.960503 0.000000 0.000000
							CHANNELS 3 Xrotation Yrotation Zrotation
							JOINT newVegas:RightHand
							{
								OFFSET -27.849251 0.000000 0.000000
								CHANNELS 3 Xrotation Yrotation Zrotation
								JOINT newVegas:RightHandThumb1
								{
									OFFSET -4.487587 -3.305161 6.305391
									CHANNELS 3 Xrotation Yrotation Zrotation
									JOINT newVegas:RightHandThumb2
									{
										OFFSET -5.480453 -3.164139 3.164143
										CHANNELS 3 Xrotation Yrotation Zrotation
										JOINT newVegas:RightHandThumb3
										{
											OFFSET -5.159721 -2.978973 2.978967
											CHANNELS 3 Xrotation Yrotation Zrotation
											End Site
											{
												OFFSET -2.494507 5.926697 1.738678
											}
										}
									}
								}
								JOINT newVegas:RightHandIndex1
								{
									OFFSET -18.578728 -0.527832 5.208049
									CHANNELS 3 Xrotation Yrotation Zrotation
									JOINT newVegas:RightHandIndex2
									{
										OFFSET -3.192009 0.000000 0.000000
										CHANNELS 3 Xrotation Yrotation Zrotation
										JOINT newVegas:RightHandIndex3
										{
											OFFSET -3.835129 0.000000 0.000000
											CHANNELS 3 Xrotation Yrotation Zrotation
											End Site
											{
												OFFSET 0.034599 3.816971 0.371180
											}
										}
									}
								}
								JOINT newVegas:RightHandMiddle1
								{
									OFFSET -18.476105 0.000000 0.000000
									CHANNELS 3 Xrotation Yrotation Zrotation
									JOINT newVegas:RightHandMiddle2
									{
										OFFSET -3.324875 0.000000 0.000000
										CHANNELS 3 Xrotation Yrotation Zrotation
										JOINT newVegas:RightHandMiddle3
										{
											OFFSET -4.596550 0.000000 0.000000
											CHANNELS 3 Xrotation Yrotation Zrotation
											End Site
											{
												OFFSET -0.057701 4.578827 0.399218
											}
										}
									}
								}
								JOINT newVegas:RightHandRing1
								{
									OFFSET -17.732719 0.121887 -4.201567
									CHANNELS 3 Xrotation Yrotation Zrotation
									JOINT newVegas:RightHandRing2
									{
										OFFSET -2.733170 0.000000 0.000000
										CHANNELS 3 Xrotation Yrotation Zrotation
										JOINT newVegas:RightHandRing3
										{
											OFFSET -3.178268 0.000000 0.000000
											CHANNELS 3 Xrotation Yrotation Zrotation
											End Site
											{
												OFFSET -0.119102 3.170624 0.185394
											}
										}
									}
								}
								JOINT newVegas:RightHandPinky1
								{
									OFFSET -15.989624 -0.606689 -7.535461
									CHANNELS 3 Xrotation Yrotation Zrotation
									JOINT newVegas:RightHandPinky2
									{
										OFFSET -2.538986 0.000000 0.000000
										CHANNELS 3 Xrotation Yrotation Zrotation
										JOINT newVegas:RightHandPinky3
										{
											OFFSET -2.593102 0.000000 0.000000
											CHANNELS 3 Xrotation Yrotation Zrotation
											End Site
											{
												OFFSET 0.150902 2.584198 0.152708
											}
										}
									}
								}
							}
							JOINT newVegas:Right_CapeC
							{
								OFFSET -15.715958 -8.608795 -6.935905
								CHANNELS 3 Xrotation Yrotation Zrotation
								JOINT newVegas:Right_CapeC1
								{
									OFFSET 0.000000 -8.688499 0.000000
									CHANNELS 3 Xrotation Yrotation Zrotation
									End Site
									{
										OFFSET 0.000000 8.688499 0.000000
									}
								}
							}
							JOINT newVegas:Right_Sleeve
							{
								OFFSET -0.267448 -0.649994 0.577675
								CHANNELS 3 Xrotation Yrotation Zrotation
								End Site
								{
									OFFSET 0.000000 15.991302 0.000000
								}
							}
						}
						JOINT newVegas:Right_CapeA
						{
							OFFSET -5.115540 -8.608795 -10.395824
							CHANNELS 3 Xrotation Yrotation Zrotation
							JOINT newVegas:Right_CapeA1
							{
								OFFSET 0.000000 -8.688499 0.000000
								CHANNELS 3 Xrotation Yrotation Zrotation
								End Site
								{
									OFFSET 0.000000 8.688499 0.000000
								}
							}
						}
						JOINT newVegas:Right_CapeB
						{
							OFFSET -26.118187 -8.608795 -7.079266
							CHANNELS 3 Xrotation Yrotation Zrotation
							JOINT newVegas:Right_CapeB1
							{
								OFFSET 0.000000 -8.688499 0.000000
								CHANNELS 3 Xrotation Yrotation Zrotation
								End Site
								{
									OFFSET 0.000000 8.688499 0.000000
								}
							}
						}
					}
				}
				JOINT newVegas:Left_Collar
				{
					OFFSET 18.625099 8.655502 8.828100
					CHANNELS 3 Xrotation Yrotation Zrotation
					JOINT newVegas:Left_Collar1
					{
						OFFSET 14.783401 10.540405 -1.259500
						CHANNELS 3 Xrotation Yrotation Zrotation
						End Site
						{
							OFFSET 0.000000 18.199875 0.000000
						}
					}
				}
				JOINT newVegas:Collar_Back
				{
					OFFSET 0.000000 15.630707 -20.132601
					CHANNELS 3 Xrotation Yrotation Zrotation
					End Site
					{
						OFFSET 0.000000 22.523010 0.000000
					}
				}
				JOINT newVegas:Left_Peck
				{
					OFFSET 17.239599 -5.132599 25.482599
					CHANNELS 3 Xrotation Yrotation Zrotation
					End Site
					{
						OFFSET 0.000000 22.523010 0.000000
					}
				}
				JOINT newVegas:Right_Peck
				{
					OFFSET -17.239599 -5.132202 25.482599
					CHANNELS 3 Xrotation Yrotation Zrotation
					End Site
					{
						OFFSET 0.000000 22.523010 0.000000
					}
				}
				JOINT newVegas:Right_Collar
				{
					OFFSET -18.625099 8.655792 8.828100
					CHANNELS 3 Xrotation Yrotation Zrotation
					JOINT newVegas:Right_Collar1
					{
						OFFSET -14.783401 10.539993 -1.259500
						CHANNELS 3 Xrotation Yrotation Zrotation
						End Site
						{
							OFFSET 0.000000 18.199631 0.000000
						}
					}
				}
			}
		}
		JOINT newVegas:Belly
		{
			OFFSET 0.000000 -6.540398 9.014299
			CHANNELS 3 Xrotation Yrotation Zrotation
			End Site
			{
				OFFSET 0.000000 11.566666 0.000000
			}
		}
	}
	JOINT newVegas:ElvisFacialAnim_Joint
	{
		OFFSET 1.000000 -95.330101 -8.825800
		CHANNELS 3 Xrotation Yrotation Zrotation
		End Site
		{
			OFFSET 0.000000 35.315800 0.000000
		}
	}
}
MOTION
Frames: 4
Frame Time: 0.016667
8.810596 89.241302 111.681992 23.884784 24.454142 -7.406218 0.000000 -0.000001 0.000000 -47.077813 7.395931 11.982946 48.787242 8.854935 -5.472685 -2.494357 29.063442 -4.456555 -0.000000 -0.000000 -0.000000 -0.000000 0.000004 -0.000001 -55.321725 -3.669464 -5.652376 39.492700 -6.924864 -4.933083 -4.612256 -6.674929 5.950223 0.000000 -0.000001 0.000000 -0.000000 0.000002 -0.000001 11.223219 -0.881946 2.107155 6.689007 -2.739663 0.561831 6.767272 -2.647714 0.806089 -2.835732 0.311525 1.299949 -2.835738 0.311524 1.299954 -0.000000 -0.000002 0.000001 -2.835727 0.311521 1.299954 -2.835652 0.311508 1.299956 -0.000001 -0.000001 -0.000000 -0.000000 -0.000002 0.000001 1.518830 -7.209067 -6.123051 -29.320902 -21.015993 -35.448460 0.000000 -29.544953 -0.000005 -8.273329 6.667483 0.376813 -4.818359 -0.388130 0.088374 7.450086 23.644288 2.310977 0.000002 -0.000000 -0.000003 1.392523 -4.289621 -18.514946 0.313195 1.891586 -18.800946 0.000000 0.000000 -0.000000 0.814291 5.226578 -29.279925 0.451070 2.256127 -22.609659 -0.000000 -0.000001 -0.000000 3.703745 9.279057 -35.643824 0.291100 1.825432 -18.119679 -0.000002 -0.000001 0.000002 -8.001695 17.864370 -33.635530 0.395799 2.118629 -21.161553 -0.000002 -0.000002 0.000002 -0.000001 -0.000001 -0.000000 -0.000001 -0.000001 -0.000000 -0.000001 -0.000001 -0.000000 -0.000001 0.000001 0.000000 -0.000001 0.000002 -0.000003 -0.000001 0.000001 0.000000 -0.000001 0.000002 0.000000 2.382972 6.831229 2.707432 -16.474828 -9.604023 53.071588 -0.000021 62.536577 0.000019 -3.641322 3.447588 -8.284696 -8.636252 11.618381 -0.482696 7.832890 -27.003870 -3.053134 0.000000 0.000000 -0.000004 9.241554 2.976996 1.678350 0.692437 -2.445352 31.616543 0.000001 -0.000000 -0.000002 0.172069 -3.349964 13.232748 0.583241 -2.258501 28.956061 0.000000 -0.000002 0.000001 1.536030 -6.518373 24.725594 0.620955 -2.325309 29.898982 0.000005 0.000001 -0.000002 -5.391435 -16.960666 33.120830 0.696246 -2.451503 31.705694 -0.000002 -0.000003 -0.000002 0.000003 -0.000001 0.000001 0.000001 -0.000002 0.000002 0.000003 -0.000001 0.000000 -0.000001 0.000000 -0.000003 -0.000001 0.000001 -0.000003 -0.000001 0.000000 -0.000003 -0.000000 0.000001 -0.000002 -0.000004 0.000001 -0.000000 -0.000004 0.000001 -0.000000 -0.000004 0.000001 -0.000000 -0.000004 0.000001 -0.000000 -0.000004 0.000001 -0.000000 -0.000004 0.000001 -0.000000 -0.000004 0.000001 -0.000000 0.000004 0.000000 -0.000000 0.000000 -0.000001 0.000000 
9.112226 90.304253 113.218887 24.086862 25.292242 -7.698223 0.000001 -0.000000 -0.000000 -47.364176 7.528404 10.950701 45.562478 8.928008 -5.509050 -1.633839 29.744320 -4.834122 -0.000001 -0.000000 -0.000001 0.000000 0.000002 -0.000001 -51.790213 -4.083733 -5.381699 36.204565 -6.864437 -4.975556 -4.874742 -7.598994 5.828361 -0.000000 -0.000000 -0.000000 -0.000001 0.000000 -0.000000 10.989373 -0.415217 2.056119 6.739195 -2.514404 0.541700 6.813275 -2.447948 0.778873 -2.619711 0.175844 1.136554 -2.619649 0.175850 1.136555 -0.000001 0.000001 0.000000 -2.619691 0.175853 1.136549 -2.619700 0.175826 1.136558 -0.000002 -0.000001 -0.000000 -0.000001 0.000001 -0.000000 1.571529 -7.049210 -6.199187 -27.840553 -21.494301 -35.479489 0.000007 -28.581680 0.000009 -5.965537 5.303752 -2.777240 -4.821596 -0.408742 0.104039 7.450083 23.644288 2.310977 -0.000003 -0.000000 -0.000001 1.410550 -4.236783 -19.058289 0.332469 1.947241 -19.376219 -0.000002 -0.000001 -0.000000 0.825884 5.247065 -29.510481 0.442711 2.235956 -22.396298 0.000000 -0.000000 0.000000 3.687001 9.272137 -35.517571 0.258886 1.723908 -17.079339 0.000001 0.000001 0.000001 -8.021487 17.813864 -33.080276 0.333925 1.951377 -19.419155 -0.000001 -0.000003 0.000002 0.000000 -0.000000 -0.000003 0.000000 -0.000000 -0.000003 -0.000001 0.000000 -0.000003 -0.000000 -0.000001 0.000001 -0.000001 -0.000001 -0.000003 -0.000000 -0.000001 0.000001 0.000000 -0.000001 0.000001 2.412594 6.644255 2.840667 -17.278017 -10.440148 53.740072 -0.000003 64.466911 0.000006 -4.319512 3.303179 -8.565998 -8.559265 11.392673 -0.383839 7.832902 -27.003879 -3.053124 -0.000003 -0.000000 -0.000000 9.265302 2.897243 4.050146 0.831886 -2.658374 34.747740 -0.000002 -0.000001 -0.000000 0.218736 -3.531507 15.536816 0.689735 -2.440913 31.552694 -0.000003 -0.000003 0.000001 1.695773 -6.638558 26.794595 0.720476 -2.490229 32.267282 -0.000000 -0.000001 0.000001 -5.286597 -17.043272 35.032368 0.792365 -2.600529 33.886334 -0.000001 0.000002 -0.000000 0.000002 -0.000000 0.000003 -0.000001 -0.000001 0.000004 0.000002 -0.000000 0.000001 -0.000002 0.000003 0.000003 -0.000002 0.000003 0.000004 -0.000002 0.000003 0.000003 -0.000002 0.000003 0.000004 -0.000001 0.000001 -0.000001 -0.000001 0.000001 -0.000001 -0.000001 0.000001 -0.000001 -0.000001 0.000001 -0.000001 -0.000001 0.000001 -0.000001 -0.000001 0.000001 -0.000001 -0.000001 0.000001 -0.000001 -0.000001 0.000001 -0.000000 0.000001 -0.000000 -0.000000 
9.402966 91.144699 114.749634 24.252393 26.167809 -8.012370 -0.000002 -0.000000 -0.000000 -47.440752 7.476675 10.430755 42.350585 9.514505 -5.643238 0.338381 30.180297 -6.662041 -0.000000 0.000001 -0.000000 -0.000001 -0.000004 0.000001 -48.564134 -4.632521 -5.103517 33.446501 -6.720466 -5.008409 -5.348138 -8.507685 5.638042 -0.000000 0.000001 0.000000 0.000001 -0.000001 -0.000000 10.740808 0.070019 2.049087 6.787112 -2.287294 0.523223 6.856948 -2.249065 0.744094 -2.462725 0.058088 0.968937 -2.462738 0.058079 0.968939 -0.000001 -0.000000 0.000000 -2.462766 0.058068 0.968939 -2.462605 0.058108 0.968932 -0.000002 0.000000 -0.000000 -0.000001 -0.000000 0.000001 1.618577 -6.835511 -6.264190 -26.441481 -21.915698 -35.489629 -0.000002 -27.829500 -0.000024 -4.158954 3.707714 -5.268041 -4.822749 -0.415824 0.109407 7.450087 23.644281 2.310976 0.000000 -0.000003 -0.000005 1.429688 -4.182427 -19.619257 0.359073 2.021272 -20.144849 0.000003 0.000000 -0.000000 0.838486 5.269130 -29.759370 0.446232 2.244492 -22.486499 -0.000001 -0.000001 0.000001 3.688304 9.275082 -35.508624 0.236545 1.649483 -16.320397 -0.000001 0.000001 -0.000001 -8.038781 17.773829 -32.635603 0.284468 1.805047 -17.910383 -0.000001 0.000002 0.000002 -0.000001 0.000000 -0.000000 -0.000001 0.000000 -0.000000 -0.000002 0.000001 -0.000001 -0.000000 0.000001 -0.000004 -0.000000 0.000002 -0.000006 -0.000000 0.000001 -0.000004 -0.000001 0.000001 -0.000004 2.446338 6.435830 2.980739 -17.981417 -11.167560 54.420598 0.000015 66.639519 -0.000028 -4.844989 3.164071 -9.542837 -8.466657 11.117446 -0.246932 7.832899 -27.003875 -3.053125 0.000001 -0.000001 -0.000002 9.295344 2.878059 6.343591 0.977332 -2.856434 37.770335 0.000002 -0.000000 0.000001 0.270630 -3.704751 17.759733 0.799801 -2.611551 34.049927 -0.000001 -0.000001 -0.000000 1.852715 -6.746790 28.783472 0.815906 -2.635190 34.401593 -0.000001 0.000001 0.000001 -5.180598 -17.111985 36.727355 0.873717 -2.717609 35.639695 0.000002 0.000002 -0.000001 0.000003 0.000001 0.000001 0.000002 -0.000002 0.000004 0.000003 0.000000 0.000000 0.000001 0.000004 0.000006 0.000001 0.000005 0.000003 0.000001 0.000004 0.000006 0.000001 0.000005 0.000005 0.000001 -0.000000 -0.000001 0.000001 -0.000000 -0.000001 0.000001 -0.000000 -0.000001 0.000001 -0.000000 -0.000001 0.000001 -0.000000 -0.000001 0.000001 -0.000000 -0.000001 0.000001 -0.000000 -0.000001 -0.000001 -0.000000 -0.000000 -0.000002 -0.000000 -0.000000 
9.722465 91.752518 116.137253 24.352555 27.074341 -8.385301 -0.000000 -0.000001 0.000000 -47.807219 7.319652 10.301998 39.055896 9.243401 -5.728110 3.370507 30.209947 -9.451174 0.000001 -0.000000 0.000000 -0.000001 0.000003 -0.000000 -45.714036 -5.282235 -4.841771 31.296586 -6.475315 -5.027153 -5.972587 -9.430722 5.475160 -0.000000 0.000000 0.000000 0.000001 -0.000001 -0.000000 10.478407 0.575915 2.064541 6.831999 -2.056071 0.504971 6.898573 -2.042587 0.728341 -2.368463 -0.084401 0.755929 -2.368449 -0.084394 0.755927 -0.000002 -0.000000 -0.000000 -2.368468 -0.084403 0.755930 -2.368459 -0.084402 0.755927 -0.000002 -0.000002 0.000001 -0.000002 -0.000000 0.000000 1.646197 -6.617214 -6.320240 -25.016644 -22.020562 -35.430230 -0.000002 -27.294805 0.000005 -2.639177 2.137429 -7.461861 -4.821883 -0.409569 0.104696 7.450087 23.644284 2.310974 0.000000 -0.000002 -0.000003 1.449934 -4.126688 -20.196335 0.393218 2.111963 -21.091669 -0.000001 0.000000 -0.000001 0.852135 5.292770 -30.026676 0.460308 2.278162 -22.843136 -0.000001 -0.000000 -0.000000 3.705320 9.286598 -35.601825 0.223624 1.604724 -15.865450 -0.000001 0.000001 0.000001 -8.053280 17.745690 -32.316555 0.246343 1.682581 -16.657556 0.000000 0.000000 -0.000000 0.000001 0.000001 -0.000002 0.000001 0.000001 -0.000002 -0.000000 0.000002 -0.000002 0.000001 0.000000 -0.000001 0.000001 -0.000000 -0.000003 0.000001 0.000000 -0.000001 0.000001 0.000000 -0.000001 2.483084 6.243167 3.110970 -18.599623 -11.797025 55.140428 -0.000045 68.895333 0.000031 -5.221357 2.918447 -10.687386 -8.360223 10.798176 -0.075884 7.832896 -27.003880 -3.053130 0.000004 -0.000002 -0.000003 9.320964 2.929875 8.482604 1.121878 -3.033586 40.583078 -0.000000 -0.000001 -0.000001 0.324904 -3.863881 19.826969 0.908248 -2.765103 36.361895 -0.000001 0.000001 0.000003 2.000295 -6.840048 30.623491 0.900152 -2.754060 36.193323 -0.000003 0.000002 0.000004 -5.078687 -17.159255 38.110946 0.930536 -2.795050 36.821092 0.000002 -0.000002 -0.000001 0.000004 -0.000003 0.000003 0.000004 -0.000005 0.000005 0.000004 -0.000003 0.000002 -0.000002 0.000002 -0.000000 -0.000002 0.000003 0.000001 -0.000002 0.000002 -0.000000 -0.000002 0.000003 0.000001 0.000001 0.000000 -0.000001 0.000001 0.000000 -0.000001 0.000001 0.000000 -0.000001 0.000001 0.000000 -0.000001 0.000001 0.000000 -0.000001 0.000001 0.000000 -0.000001 0.000001 0.000000 -0.000001 -0.000000 0.000001 -0.000000 -0.000000 -0.000001 0.000000 
